<svg width="50" height="50" viewBox="0 0 50 50" fill="none" xmlns="http://www.w3.org/2000/svg">
<path d="M37.5 18.75V25M37.5 25V31.25M37.5 25H43.75M37.5 25H31.25M27.0833 14.5833C27.0833 19.1857 23.3524 22.9167 18.75 22.9167C14.1476 22.9167 10.4167 19.1857 10.4167 14.5833C10.4167 9.98096 14.1476 6.25 18.75 6.25C23.3524 6.25 27.0833 9.98096 27.0833 14.5833ZM6.25 41.6667C6.25 34.7631 11.8464 29.1667 18.75 29.1667C25.6536 29.1667 31.25 34.7631 31.25 41.6667V43.75H6.25V41.6667Z" stroke="url(#paint0_linear_14_463)" stroke-width="3" stroke-linecap="round" stroke-linejoin="round"/>
<defs>
<linearGradient id="paint0_linear_14_463" x1="39.6949" y1="25" x2="6.25" y2="25" gradientUnits="userSpaceOnUse">
<stop stop-color="#F9B53A"/>
<stop offset="1" stop-color="#FF59A8"/>
</linearGradient>
</defs>
</svg>
